<svg width="21" height="21" viewBox="0 0 21 21" fill="none" xmlns="http://www.w3.org/2000/svg">
<path d="M10.3521 14.5079C12.6475 14.5079 14.5084 12.647 14.5084 10.3516C14.5084 8.05614 12.6475 6.19531 10.3521 6.19531C8.05666 6.19531 6.19583 8.05614 6.19583 10.3516C6.19583 12.647 8.05666 14.5079 10.3521 14.5079Z" stroke="white" stroke-linecap="round" stroke-linejoin="round"/>
<path d="M1 14.5079V6.19536C1 3.32604 3.32604 1 6.19536 1H14.5079C17.3772 1 19.7033 3.32604 19.7033 6.19536V14.5079C19.7033 17.3772 17.3772 19.7033 14.5079 19.7033H6.19536C3.32604 19.7033 1 17.3772 1 14.5079Z" stroke="white"/>
<path d="M16.0665 4.6488L16.0783 4.63574" stroke="white" stroke-linecap="round" stroke-linejoin="round"/>
</svg>
