<svg width="38" height="38" viewBox="0 0 38 38" fill="none" xmlns="http://www.w3.org/2000/svg">
<path fill-rule="evenodd" clip-rule="evenodd" d="M12.133 12.1322V25.3525H25.3527V12.1322H12.133ZM9.16654 25.3525C3.88831 23.9458 0 19.1326 0 13.4113C0 6.66152 5.41178 1.17575 12.133 1.05629V8.81642C13.6553 3.71726 18.3812 0 23.9753 0C30.7248 0 36.2104 5.41137 36.3303 12.1322H28.6678C33.7677 13.6541 37.4858 18.3803 37.4858 23.975C37.4858 30.7248 32.074 36.2105 25.3527 36.33V28.3155C23.947 33.5951 19.1332 37.4847 13.4109 37.4847C6.66135 37.4847 1.17574 32.0733 1.05587 25.3525H9.16654Z" fill="black"/>
</svg>
